<?xml version="1.0" standalone="no"?>
<!DOCTYPE svg PUBLIC "-//W3C//DTD SVG 20010904//EN"
 "http://www.w3.org/TR/2001/REC-SVG-20010904/DTD/svg10.dtd">
<svg version="1.0" xmlns="http://www.w3.org/2000/svg"
 width="700.000000pt" height="700.000000pt" viewBox="0 0 700.000000 700.000000"
 preserveAspectRatio="xMidYMid meet">
<metadata>
Created by potrace 1.11, written by Peter Selinger 2001-2013
</metadata>
<g transform="translate(0.000000,700.000000) scale(0.100000,-0.100000)"
fill="#000000" stroke="none">
<path d="M3377 6634 c-1 -1 -47 -4 -102 -8 -264 -17 -560 -78 -812 -166 -172
-61 -409 -169 -510 -233 -24 -15 -45 -27 -48 -27 -15 0 -271 -178 -366 -254
-478 -383 -837 -905 -1024 -1485 -32 -101 -76 -270 -89 -341 -2 -14 -7 -36
-10 -50 -3 -14 -8 -42 -11 -62 -3 -21 -7 -53 -10 -71 -32 -200 -38 -596 -11
-797 2 -14 7 -48 10 -75 66 -494 270 -998 575 -1415 139 -190 364 -429 526
-560 44 -35 82 -67 85 -70 5 -5 42 -32 155 -111 166 -117 424 -253 625 -329
47 -18 94 -36 105 -40 132 -55 447 -127 680 -156 187 -23 521 -22 725 1 371
43 819 187 1129 362 51 29 95 53 97 53 5 0 157 100 234 155 200 140 451 379
615 585 33 41 62 77 65 80 3 3 14 19 26 35 11 17 36 53 55 80 91 130 235 393
289 525 12 30 28 69 35 85 75 174 169 531 190 725 4 36 9 74 11 85 17 88 23
467 10 595 -16 153 -39 318 -51 360 -2 8 -7 29 -10 45 -2 17 -14 66 -25 110
-11 44 -23 90 -25 102 -25 112 -175 482 -245 603 -117 205 -216 357 -302 464
-191 240 -422 459 -668 633 -203 144 -486 293 -710 374 -76 28 -240 80 -269
85 -14 3 -28 7 -32 10 -8 4 -24 8 -179 39 -119 24 -221 38 -360 51 -62 5 -368
12 -373 8z m383 -447 c19 -3 60 -8 90 -12 80 -9 81 -10 250 -45 92 -19 309
-84 365 -109 11 -5 49 -21 85 -36 308 -129 591 -319 831 -555 238 -235 387
-437 529 -718 127 -254 229 -572 256 -807 4 -27 8 -53 10 -56 8 -14 18 -198
18 -334 1 -161 -8 -307 -23 -395 -6 -30 -12 -71 -15 -90 -5 -40 -9 -56 -32
-155 -142 -608 -514 -1170 -1024 -1546 -177 -131 -388 -249 -575 -323 -38 -16
-79 -32 -90 -37 -53 -21 -263 -86 -309 -95 -12 -2 -44 -8 -72 -14 -28 -6 -64
-13 -80 -16 -16 -2 -54 -9 -84 -14 -181 -31 -532 -33 -750 -4 -299 39 -603
136 -885 283 -122 63 -293 168 -323 198 -7 7 -17 13 -21 13 -4 0 -16 8 -27 17
-10 10 -53 45 -94 77 -162 128 -379 364 -508 551 -151 219 -291 506 -357 730
-10 33 -23 78 -30 100 -14 45 -53 230 -60 290 -3 22 -7 47 -10 55 -28 102 -25
536 5 753 65 459 286 961 572 1303 299 356 627 607 1023 779 131 57 392 143
483 159 9 2 35 7 57 11 66 12 77 14 145 24 36 6 101 13 145 17 44 3 81 7 83 9
5 4 386 -3 422 -8z"/>
<path d="M3446 4879 c-21 -5 -50 -18 -65 -28 -54 -40 -1226 -1222 -1242 -1254
-27 -51 -29 -115 -7 -175 47 -125 197 -177 312 -107 23 13 218 202 435 419
217 218 397 394 399 392 2 -3 4 -414 4 -915 0 -615 3 -922 10 -946 6 -19 24
-50 41 -70 107 -130 326 -89 375 72 8 25 11 309 11 946 0 500 2 911 4 913 2 2
181 -174 398 -392 217 -217 412 -406 434 -419 186 -110 404 92 306 283 -22 43
-1226 1247 -1266 1266 -43 21 -103 27 -149 15z"/>
</g>
</svg>
